<?xml version="1.0" encoding="UTF-8"?>
<!DOCTYPE svg PUBLIC "-//W3C//DTD SVG 1.1//EN" "http://www.w3.org/Graphics/SVG/1.1/DTD/svg11.dtd">
<svg xmlns="http://www.w3.org/2000/svg" version="1.1" width="215px" height="178px" style="shape-rendering:geometricPrecision; text-rendering:geometricPrecision; image-rendering:optimizeQuality; fill-rule:evenodd; clip-rule:evenodd" xmlns:xlink="http://www.w3.org/1999/xlink">
<g><path style="opacity:1" fill="#838383" d="M 152.5,5.5 C 169.744,5.17472 186.91,5.50806 204,6.5C 205.576,12.3877 205.909,18.3877 205,24.5C 204.333,31.8333 203.667,39.1667 203,46.5C 202.853,49.5706 202.02,52.4039 200.5,55C 183.5,55.6667 166.5,55.6667 149.5,55C 147.418,52.5906 146.418,49.7573 146.5,46.5C 147.697,34.5035 148.863,22.5035 150,10.5C 150.366,8.54826 151.199,6.88159 152.5,5.5 Z"/></g>
<g><path style="opacity:1" fill="#e6e6e6" d="M 155.5,15.5 C 158.187,15.3359 160.854,15.5026 163.5,16C 164.126,16.7504 164.626,17.5838 165,18.5C 165.651,23.2935 165.151,27.9601 163.5,32.5C 160.881,32.2317 158.381,32.565 156,33.5C 155.857,37.6192 155.19,41.6192 154,45.5C 153.42,35.4472 153.92,25.4472 155.5,15.5 Z"/></g>
<g><path style="opacity:1" fill="#a6a6a6" d="M 199.5,19.5 C 197.365,21.369 194.698,22.0356 191.5,21.5C 191.611,20.8826 191.944,20.3826 192.5,20C 194.81,19.5034 197.143,19.3367 199.5,19.5 Z"/></g>
<g><path style="opacity:1" fill="#b0b0b0" d="M 162.5,27.5 C 162.5,25.5 162.5,23.5 162.5,21.5C 160.833,21.5 159.167,21.5 157.5,21.5C 157.737,22.791 157.404,23.791 156.5,24.5C 156.5,22.8333 156.5,21.1667 156.5,19.5C 163.231,18.6913 165.231,21.358 162.5,27.5 Z"/></g>
<g><path style="opacity:1" fill="#828282" d="M 162.5,27.5 C 160.621,28.3414 158.621,28.6747 156.5,28.5C 156.5,27.1667 156.5,25.8333 156.5,24.5C 157.404,23.791 157.737,22.791 157.5,21.5C 159.167,21.5 160.833,21.5 162.5,21.5C 162.5,23.5 162.5,25.5 162.5,27.5 Z"/></g>
<g><path style="opacity:1" fill="#e5e5e5" d="M 199.5,19.5 C 197.143,19.3367 194.81,19.5034 192.5,20C 191.944,20.3826 191.611,20.8826 191.5,21.5C 191.5,23.5 191.5,25.5 191.5,27.5C 192.918,29.3079 194.918,29.9746 197.5,29.5C 198.643,32.9758 198.81,36.6425 198,40.5C 197.626,42.4913 196.793,44.158 195.5,45.5C 193.167,45.5 190.833,45.5 188.5,45.5C 188.5,44.5 188.5,43.5 188.5,42.5C 191.388,43.0102 193.721,42.3435 195.5,40.5C 196.265,37.9039 196.599,35.2372 196.5,32.5C 194.167,32.5 191.833,32.5 189.5,32.5C 189.103,27.0414 189.603,21.7081 191,16.5C 193.719,15.5562 196.552,15.2229 199.5,15.5C 199.5,16.8333 199.5,18.1667 199.5,19.5 Z"/></g>
<g><path style="opacity:1" fill="#bebebe" d="M 191.5,27.5 C 194.082,27.0254 196.082,27.6921 197.5,29.5C 194.918,29.9746 192.918,29.3079 191.5,27.5 Z"/></g>
<g><path style="opacity:1" fill="#f79426" d="M 60.5,96.5 C 57.7892,96.1849 55.4559,96.8516 53.5,98.5C 55.8001,76.5317 57.8001,54.5317 59.5,32.5C 61.8333,32.5 64.1667,32.5 66.5,32.5C 65.0367,53.9315 63.0367,75.2648 60.5,96.5 Z"/></g>
<g><path style="opacity:1" fill="#ececec" d="M 167.5,40.5 C 169.265,41.4614 171.265,41.7947 173.5,41.5C 173.5,42.5 173.5,43.5 173.5,44.5C 171.052,45.4731 168.385,45.8064 165.5,45.5C 165.397,35.7322 166.231,26.0655 168,16.5C 168.168,24.4966 168.001,32.4966 167.5,40.5 Z"/></g>
<g><path style="opacity:1" fill="#adadad" d="M 167.5,40.5 C 169.833,40.5 172.167,40.5 174.5,40.5C 174.768,42.099 174.434,43.4324 173.5,44.5C 173.5,43.5 173.5,42.5 173.5,41.5C 171.265,41.7947 169.265,41.4614 167.5,40.5 Z"/></g>
<g><path style="opacity:1" fill="#b5b5b5" d="M 195.5,40.5 C 193.721,42.3435 191.388,43.0102 188.5,42.5C 188.5,43.5 188.5,44.5 188.5,45.5C 190.833,45.5 193.167,45.5 195.5,45.5C 193.052,46.4731 190.385,46.8064 187.5,46.5C 187.261,44.5328 187.594,42.6995 188.5,41C 190.81,40.5034 193.143,40.3367 195.5,40.5 Z"/></g>
<g><path style="opacity:1" fill="#eaeaea" d="M 178.5,32.5 C 177.523,35.2869 177.19,38.2869 177.5,41.5C 180.059,41.8016 182.393,41.4682 184.5,40.5C 184.925,32.0996 185.925,23.7663 187.5,15.5C 187.833,16.1667 188.167,16.8333 188.5,17.5C 188.016,26.2686 186.849,34.9353 185,43.5C 182.544,45.3213 179.711,45.988 176.5,45.5C 175.656,35.4423 176.322,25.4423 178.5,15.5C 178.833,17.3333 179.167,19.1667 179.5,21C 179.11,24.8348 178.777,28.6681 178.5,32.5 Z"/></g>
<g><path style="opacity:1" fill="#b7b7b7" d="M 178.5,32.5 C 178.5,35.1667 178.5,37.8333 178.5,40.5C 180.5,40.5 182.5,40.5 184.5,40.5C 182.393,41.4682 180.059,41.8016 177.5,41.5C 177.19,38.2869 177.523,35.2869 178.5,32.5 Z"/></g>
<g><path style="opacity:1" fill="#f9ad56" d="M 47.5,69.5 C 38.1339,69.2792 28.8006,69.6126 19.5,70.5C 20.6002,69.4415 21.9336,68.6082 23.5,68C 27.5,67.8333 31.5,67.6667 35.5,67.5C 39.893,67.5093 43.893,68.176 47.5,69.5 Z"/></g>
<g><path style="opacity:1" fill="#f9ad56" d="M 108.5,69.5 C 99.1339,69.2792 89.8006,69.6126 80.5,70.5C 81.6002,69.4415 82.9336,68.6082 84.5,68C 88.5,67.8333 92.5,67.6667 96.5,67.5C 100.893,67.5093 104.893,68.176 108.5,69.5 Z"/></g>
<g><path style="opacity:1" fill="#f9ad56" d="M 153.5,69.5 C 144.134,69.2792 134.801,69.6126 125.5,70.5C 126.842,69.207 128.509,68.3736 130.5,68C 134.333,67.8333 138.167,67.6667 142,67.5C 146.229,67.5102 150.062,68.1768 153.5,69.5 Z"/></g>
<g><path style="opacity:1" fill="#f9ab53" d="M 191.5,70.5 C 183.557,68.7258 175.89,69.3924 168.5,72.5C 173.897,67.7776 180.23,66.2776 187.5,68C 189.066,68.6082 190.4,69.4415 191.5,70.5 Z"/></g>
<g><path style="opacity:1" fill="#f79322" d="M 47.5,69.5 C 47.4135,73.8566 47.0802,78.19 46.5,82.5C 37.7663,81.865 29.4329,82.5316 21.5,84.5C 19.9263,85.9842 18.593,87.6508 17.5,89.5C 17.5,88.1667 17.5,86.8333 17.5,85.5C 15.0504,85.298 12.717,85.6314 10.5,86.5C 11.6433,80.0192 14.6433,74.6859 19.5,70.5C 28.8006,69.6126 38.1339,69.2792 47.5,69.5 Z"/></g>
<g><path style="opacity:1" fill="#f79222" d="M 108.5,69.5 C 108.414,73.8566 108.08,78.19 107.5,82.5C 98.7663,81.865 90.4329,82.5316 82.5,84.5C 80.9263,85.9842 79.593,87.6508 78.5,89.5C 78.2606,87.5328 78.5939,85.6995 79.5,84C 77.1902,83.5034 74.8568,83.3367 72.5,83.5C 73.5576,78.123 76.2242,73.7897 80.5,70.5C 89.8006,69.6126 99.1339,69.2792 108.5,69.5 Z"/></g>
<g><path style="opacity:1" fill="#f69121" d="M 153.5,69.5 C 153.706,73.8982 153.373,78.2315 152.5,82.5C 143.983,82.1739 135.65,82.5073 127.5,83.5C 125.451,83.2942 125.117,82.4609 126.5,81C 123.937,80.874 121.604,80.7073 119.5,80.5C 120.479,76.5395 122.479,73.2061 125.5,70.5C 134.801,69.6126 144.134,69.2792 153.5,69.5 Z"/></g>
<g><path style="opacity:1" fill="#f68c20" d="M 191.5,70.5 C 194.45,72.7275 196.116,75.7275 196.5,79.5C 188.299,80.486 179.966,81.8193 171.5,83.5C 168.916,82.6072 166.249,82.2739 163.5,82.5C 164.642,78.8832 166.308,75.5498 168.5,72.5C 175.89,69.3924 183.557,68.7258 191.5,70.5 Z"/></g>
<g><path style="opacity:1" fill="#fabb77" d="M 46.5,82.5 C 38.2659,83.194 29.9326,83.8607 21.5,84.5C 29.4329,82.5316 37.7663,81.865 46.5,82.5 Z"/></g>
<g><path style="opacity:1" fill="#f9b978" d="M 107.5,82.5 C 99.2659,83.194 90.9326,83.8607 82.5,84.5C 90.4329,82.5316 98.7663,81.865 107.5,82.5 Z"/></g>
<g><path style="opacity:1" fill="#f9b877" d="M 152.5,82.5 C 144.266,83.194 135.933,83.8607 127.5,84.5C 127.5,84.1667 127.5,83.8333 127.5,83.5C 135.65,82.5073 143.983,82.1739 152.5,82.5 Z"/></g>
<g><path style="opacity:1" fill="#f68a2d" d="M 196.5,79.5 C 198.417,85.5376 198.75,91.5376 197.5,97.5C 197.5,94.8333 197.5,92.1667 197.5,89.5C 194.856,89.2847 192.523,89.2847 190.5,89.5C 189.692,87.7798 188.692,86.1131 187.5,84.5C 185.603,83.1952 183.269,82.5286 180.5,82.5C 177.975,82.5034 175.641,82.8367 173.5,83.5C 169.423,87.7516 167.09,92.7516 166.5,98.5C 164.05,98.298 161.717,98.6314 159.5,99.5C 159.882,93.4932 161.216,87.8265 163.5,82.5C 166.249,82.2739 168.916,82.6072 171.5,83.5C 179.966,81.8193 188.299,80.486 196.5,79.5 Z"/></g>
<g><path style="opacity:1" fill="#f9b574" d="M 173.5,83.5 C 175.641,82.8367 177.975,82.5034 180.5,82.5C 183.269,82.5286 185.603,83.1952 187.5,84.5C 182.93,83.559 178.263,83.2256 173.5,83.5 Z"/></g>
<g><path style="opacity:1" fill="#f68c2a" d="M 119.5,80.5 C 121.604,80.7073 123.937,80.874 126.5,81C 125.117,82.4609 125.451,83.2942 127.5,83.5C 127.5,83.8333 127.5,84.1667 127.5,84.5C 124.537,88.0779 122.537,92.0779 121.5,96.5C 121.5,95.5 121.5,94.5 121.5,93.5C 119.379,93.6747 117.379,93.3414 115.5,92.5C 115.926,88.0983 117.26,84.0983 119.5,80.5 Z"/></g>
<g><path style="opacity:1" fill="#f48129" d="M 115.5,92.5 C 117.379,93.3414 119.379,93.6747 121.5,93.5C 121.5,94.5 121.5,95.5 121.5,96.5C 121.756,100.269 121.423,103.936 120.5,107.5C 117.789,107.185 115.456,107.852 113.5,109.5C 114.101,103.821 114.768,98.1546 115.5,92.5 Z"/></g>
<g><path style="opacity:1" fill="#f58629" d="M 72.5,83.5 C 74.8568,83.3367 77.1902,83.5034 79.5,84C 78.5939,85.6995 78.2606,87.5328 78.5,89.5C 77.0649,94.7448 76.0649,100.078 75.5,105.5C 73.1667,105.5 70.8333,105.5 68.5,105.5C 69.0213,97.9783 70.3546,90.645 72.5,83.5 Z"/></g>
<g><path style="opacity:1" fill="#f5842c" d="M 60.5,96.5 C 60.8128,100.042 60.4794,103.375 59.5,106.5C 57.7354,105.539 55.7354,105.205 53.5,105.5C 53.7373,106.791 53.404,107.791 52.5,108.5C 53.0508,105.193 53.3841,101.86 53.5,98.5C 55.4559,96.8516 57.7892,96.1849 60.5,96.5 Z"/></g>
<g><path style="opacity:1" fill="#f68b35" d="M 17.5,89.5 C 15.9923,95.0597 14.9923,100.726 14.5,106.5C 23.6822,106.173 32.6822,106.507 41.5,107.5C 30.1667,107.5 18.8333,107.5 7.5,107.5C 7.93106,100.379 8.93106,93.3793 10.5,86.5C 12.717,85.6314 15.0504,85.298 17.5,85.5C 17.5,86.8333 17.5,88.1667 17.5,89.5 Z"/></g>
<g><path style="opacity:1" fill="#f47c2e" d="M 197.5,97.5 C 197.482,105.037 196.815,112.371 195.5,119.5C 195.5,117.5 195.5,115.5 195.5,113.5C 193.379,113.675 191.379,113.341 189.5,112.5C 189.84,106.585 190.506,100.752 191.5,95C 190.594,93.3005 190.261,91.4672 190.5,89.5C 192.523,89.2847 194.856,89.2847 197.5,89.5C 197.5,92.1667 197.5,94.8333 197.5,97.5 Z"/></g>
<g><path style="opacity:1" fill="#f3772d" d="M 166.5,98.5 C 166.361,106.555 165.694,114.555 164.5,122.5C 162.167,122.5 159.833,122.5 157.5,122.5C 158.287,114.846 158.953,107.179 159.5,99.5C 161.717,98.6314 164.05,98.298 166.5,98.5 Z"/></g>
<g><path style="opacity:1" fill="#f37927" d="M 7.5,107.5 C 18.8333,107.5 30.1667,107.5 41.5,107.5C 41.8128,111.042 41.4794,114.375 40.5,117.5C 35.6782,116.834 30.6782,116.501 25.5,116.5C 19.0653,116.683 12.7319,117.349 6.5,118.5C 6.72442,114.821 7.05775,111.154 7.5,107.5 Z"/></g>
<g><path style="opacity:1" fill="#f3762c" d="M 120.5,107.5 C 120.497,112.527 120.164,117.527 119.5,122.5C 117.167,122.5 114.833,122.5 112.5,122.5C 112.739,118.158 113.073,113.824 113.5,109.5C 115.456,107.852 117.789,107.185 120.5,107.5 Z"/></g>
<g><path style="opacity:1" fill="#f2702c" d="M 189.5,112.5 C 191.379,113.341 193.379,113.675 195.5,113.5C 195.5,115.5 195.5,117.5 195.5,119.5C 195.5,120.5 195.5,121.5 195.5,122.5C 193.167,122.5 190.833,122.5 188.5,122.5C 188.833,119.167 189.167,115.833 189.5,112.5 Z"/></g>
<g><path style="opacity:1" fill="#f3792d" d="M 68.5,105.5 C 70.8333,105.5 73.1667,105.5 75.5,105.5C 84.3178,106.493 93.3178,106.827 102.5,106.5C 102.628,110.881 102.295,115.215 101.5,119.5C 90.1667,119.5 78.8333,119.5 67.5,119.5C 67.8333,114.833 68.1667,110.167 68.5,105.5 Z"/></g>
<g><path style="opacity:1" fill="#f37428" d="M 40.5,117.5 C 40.5,119.167 40.5,120.833 40.5,122.5C 29.1667,122.5 17.8333,122.5 6.5,122.5C 6.5,121.167 6.5,119.833 6.5,118.5C 12.7319,117.349 19.0653,116.683 25.5,116.5C 30.6782,116.501 35.6782,116.834 40.5,117.5 Z"/></g>
<g><path style="opacity:1" fill="#f3782c" d="M 59.5,106.5 C 59.5276,111.862 59.1942,117.195 58.5,122.5C 56.1667,122.5 53.8333,122.5 51.5,122.5C 51.6686,117.819 52.0019,113.152 52.5,108.5C 53.404,107.791 53.7373,106.791 53.5,105.5C 55.7354,105.205 57.7354,105.539 59.5,106.5 Z"/></g>
<g><path style="opacity:1" fill="#f26f27" d="M 67.5,119.5 C 78.8333,119.5 90.1667,119.5 101.5,119.5C 101.5,120.5 101.5,121.5 101.5,122.5C 90.1667,122.5 78.8333,122.5 67.5,122.5C 67.5,121.5 67.5,120.5 67.5,119.5 Z"/></g>
<g><path style="opacity:1" fill="#989898" d="M 11.5,138.5 C 9.5328,138.739 7.69946,138.406 6,137.5C 5.50204,140.482 5.33537,143.482 5.5,146.5C 4.62107,140.334 4.62107,134.001 5.5,127.5C 7.83333,127.5 10.1667,127.5 12.5,127.5C 12.2756,131.179 11.9422,134.846 11.5,138.5 Z"/></g>
<g><path style="opacity:1" fill="#989898" d="M 56.5,139.5 C 54.0504,139.298 51.717,139.631 49.5,140.5C 50.0937,136.492 50.7604,132.492 51.5,128.5C 53.396,127.534 55.396,127.201 57.5,127.5C 57.6054,131.548 57.2721,135.548 56.5,139.5 Z"/></g>
<g><path style="opacity:1" fill="#9a9a9a" d="M 72.5,140.5 C 70.7376,140.643 69.0709,140.309 67.5,139.5C 66.5258,141.743 66.1924,144.076 66.5,146.5C 65.7322,140.339 65.7322,134.006 66.5,127.5C 68.8333,127.5 71.1667,127.5 73.5,127.5C 73.0728,131.824 72.7395,136.158 72.5,140.5 Z"/></g>
<g><path style="opacity:1" fill="#9e9e9e" d="M 163.5,140.5 C 161.167,140.5 158.833,140.5 156.5,140.5C 156.467,136.131 156.8,131.798 157.5,127.5C 159.5,127.5 161.5,127.5 163.5,127.5C 163.5,131.833 163.5,136.167 163.5,140.5 Z"/></g>
<g><path style="opacity:1" fill="#858585" d="M 11.5,138.5 C 11.7667,142.657 13.4334,146.157 16.5,149C 24.4931,149.5 32.4931,149.666 40.5,149.5C 40.7373,150.791 40.404,151.791 39.5,152.5C 28.1604,150.892 16.827,149.558 5.5,148.5C 5.5,147.833 5.5,147.167 5.5,146.5C 5.33537,143.482 5.50204,140.482 6,137.5C 7.69946,138.406 9.5328,138.739 11.5,138.5 Z"/></g>
<g><path style="opacity:1" fill="#909090" d="M 146.5,150.5 C 134.985,150.922 123.652,150.255 112.5,148.5C 112.5,149.5 112.5,150.5 112.5,151.5C 111.345,144.345 111.178,137.012 112,129.5C 113.754,127.75 115.921,127.083 118.5,127.5C 118.334,132.844 118.501,138.177 119,143.5C 119.792,145.587 120.959,147.421 122.5,149C 130.677,149.171 138.677,149.671 146.5,150.5 Z"/></g>
<g><path style="opacity:1" fill="#989898" d="M 190.5,149.5 C 182.839,149.403 175.172,149.069 167.5,148.5C 172.628,148.888 177.628,148.388 182.5,147C 186.424,141.151 188.424,134.651 188.5,127.5C 190.5,127.5 192.5,127.5 194.5,127.5C 194.658,135.23 193.325,142.564 190.5,149.5 Z"/></g>
<g><path style="opacity:1" fill="#838383" d="M 56.5,139.5 C 56.3623,146.363 55.6956,153.03 54.5,159.5C 54.5,157.833 54.5,156.167 54.5,154.5C 52.3792,154.675 50.3792,154.341 48.5,153.5C 49.0802,149.19 49.4135,144.857 49.5,140.5C 51.717,139.631 54.0504,139.298 56.5,139.5 Z"/></g>
<g><path style="opacity:1" fill="#858585" d="M 72.5,140.5 C 73.2249,143.769 74.8916,146.602 77.5,149C 85.5207,149.168 93.5207,149.668 101.5,150.5C 101.376,151.107 101.043,151.44 100.5,151.5C 96.5139,150.834 92.3472,150.501 88,150.5C 80.942,150.381 74.1086,151.047 67.5,152.5C 66.5386,150.735 66.2053,148.735 66.5,146.5C 66.1924,144.076 66.5258,141.743 67.5,139.5C 69.0709,140.309 70.7376,140.643 72.5,140.5 Z"/></g>
<g><path style="opacity:1" fill="#828282" d="M 156.5,140.5 C 158.833,140.5 161.167,140.5 163.5,140.5C 164.308,143.45 165.642,146.117 167.5,148.5C 175.172,149.069 182.839,149.403 190.5,149.5C 186.661,162.752 177.994,167.252 164.5,163C 161.619,161.749 159.786,159.583 159,156.5C 157.038,151.344 156.205,146.011 156.5,140.5 Z"/></g>
<g><path style="opacity:1" fill="#767676" d="M 5.5,148.5 C 16.827,149.558 28.1604,150.892 39.5,152.5C 39.7592,156.24 39.4259,159.906 38.5,163.5C 30.1866,164.665 21.8533,164.832 13.5,164C 8.29252,160.253 5.62585,155.086 5.5,148.5 Z"/></g>
<g><path style="opacity:1" fill="#7c7c7c" d="M 146.5,150.5 C 146.086,155.074 145.419,159.574 144.5,164C 136.167,164.667 127.833,164.667 119.5,164C 115.217,160.935 112.884,156.768 112.5,151.5C 112.5,150.5 112.5,149.5 112.5,148.5C 123.652,150.255 134.985,150.922 146.5,150.5 Z"/></g>
<g><path style="opacity:1" fill="#787878" d="M 100.5,151.5 C 100.766,155.571 100.433,159.571 99.5,163.5C 91.1866,164.665 82.8533,164.832 74.5,164C 70.0091,161.524 67.6757,157.691 67.5,152.5C 74.1086,151.047 80.942,150.381 88,150.5C 92.3472,150.501 96.5139,150.834 100.5,151.5 Z"/></g>
<g><path style="opacity:1" fill="#717171" d="M 48.5,153.5 C 50.3792,154.341 52.3792,154.675 54.5,154.5C 54.5,156.167 54.5,157.833 54.5,159.5C 54.5,161.167 54.5,162.833 54.5,164.5C 52.1667,164.5 49.8333,164.5 47.5,164.5C 47.5524,160.802 47.8857,157.135 48.5,153.5 Z"/></g>
</svg>
